# xmcd CD database file
#
# Track frame offsets:
#	150
#	22699
#	53608
#	74200
#	104473
#	135688
#	157571
#	180239
#	202375
#	217980
#	260650
#	282534
#	302786
#
# Disc length: 4357 seconds
#
# Revision: 0
# Processed by: cddbd v1.5.2PL0 Copyright (c) Steve Scherf et al.
# Submitted via: CDex 1.70beta2
#
DISCID=bc11030d
DTITLE=Fifty Fingers - Fifty Fingers
DYEAR=2004
DGENRE=Jazz
TTITLE0=Escualo
TTITLE1=Max mag's
TTITLE2=La defense
TTITLE3=Fables Of Faubus
TTITLE4=Monsieur Hulot
TTITLE5=Paris
TTITLE6=Check It
TTITLE7=Dance Of Maya
TTITLE8=Gobang
TTITLE9="64"
TTITLE10=Bolivia
TTITLE11=Legoland
TTITLE12=Ballade mit Pommes
EXTD=YEAR: 2004
EXTT0=
EXTT1=
EXTT2=
EXTT3=
EXTT4=
EXTT5=
EXTT6=
EXTT7=
EXTT8=
EXTT9=
EXTT10=
EXTT11=
EXTT12=
PLAYORDER=
